<svg width="42" height="42" viewBox="0 0 42 42" fill="none" xmlns="http://www.w3.org/2000/svg">
<rect width="42" height="42" rx="21" fill="#F2F2F2"/>
<g clip-path="url(#clip0_1025_3974)">
<path d="M22.199 12.7656C22.8742 12.7656 23.4736 13.1869 23.6871 13.8114L24.114 15.0597H26.6859C27.119 15.0597 27.4702 15.4021 27.4702 15.8244C27.4702 16.2468 27.119 16.5891 26.6859 16.5892L26.6839 16.6436L26.0036 25.929C25.9157 27.1296 24.8911 28.0597 23.6567 28.0597H17.1661C15.9316 28.0597 14.907 27.1296 14.8191 25.929L14.1388 16.6436C14.1375 16.6254 14.1368 16.6072 14.1368 16.5892C13.7037 16.5891 13.3525 16.2468 13.3525 15.8244C13.3525 15.4021 13.7037 15.0597 14.1369 15.0597H16.7088L17.1356 13.8114C17.3491 13.1869 17.9485 12.7656 18.6237 12.7656H22.199ZM25.1153 16.5892H15.7075L16.3837 25.8201C16.4131 26.2203 16.7546 26.5303 17.1661 26.5303H23.6567C24.0681 26.5303 24.4096 26.2203 24.439 25.8201L25.1153 16.5892ZM18.8427 18.8833C19.245 18.8833 19.5765 19.1785 19.6218 19.5588L19.627 19.648V23.4715C19.627 23.8939 19.2759 24.2362 18.8427 24.2362C18.4405 24.2362 18.109 23.941 18.0637 23.5607L18.0584 23.4715V19.648C18.0584 19.2256 18.4096 18.8833 18.8427 18.8833ZM21.98 18.8833C22.4132 18.8833 22.7643 19.2256 22.7643 19.648V23.4715C22.7643 23.8939 22.4132 24.2362 21.98 24.2362C21.5468 24.2362 21.1957 23.8939 21.1957 23.4715V19.648C21.1957 19.2256 21.5468 18.8833 21.98 18.8833ZM22.199 14.295H18.6237L18.3623 15.0597H22.4605L22.199 14.295Z" fill="#620101" fill-opacity="0.7"/>
</g>
<defs>
<clipPath id="clip0_1025_3974">
<rect width="20" height="20" fill="white" transform="translate(11 11)"/>
</clipPath>
</defs>
</svg>
