<svg width="21" height="21" viewBox="0 0 21 21" fill="none" xmlns="http://www.w3.org/2000/svg">
<g clip-path="url(#clip0_797_4098)">
<path d="M20.9651 7.96589C20.887 7.73259 20.6849 7.56262 20.4417 7.52522L13.9862 6.53887L11.0938 0.377344C10.9855 0.147 10.7538 0 10.4995 0C10.2452 0 10.0139 0.147 9.90531 0.377344L7.01289 6.53887L0.557358 7.52555C0.314218 7.56262 0.112421 7.73292 0.033999 7.96622C-0.0440947 8.19919 0.0146396 8.45644 0.186577 8.63264L4.8768 13.442L3.76839 20.2355C3.7277 20.4835 3.83237 20.7332 4.03811 20.8776C4.15098 20.9573 4.28322 20.9977 4.41578 20.9977C4.52472 20.9977 4.63431 20.9701 4.73341 20.9157L10.4992 17.7266L16.265 20.9157C16.3641 20.9701 16.4737 20.9977 16.5827 20.9977C16.7152 20.9977 16.8478 20.9573 16.9603 20.8776C17.1661 20.7332 17.2707 20.4835 17.23 20.2355L16.1216 13.442L20.8119 8.63264C20.9841 8.45611 21.0432 8.19886 20.9651 7.96589Z" fill="#A8A8A8"/>
</g>
<defs>
<clipPath id="clip0_797_4098">
<rect width="21" height="21" fill="white"/>
</clipPath>
</defs>
</svg>
