<svg width="42" height="42" viewBox="0 0 42 42" fill="none" xmlns="http://www.w3.org/2000/svg">
<rect width="42" height="42" rx="21" fill="#F2F2F2"/>
<g clip-path="url(#clip0_1025_3661)">
<path fill-rule="evenodd" clip-rule="evenodd" d="M13.6668 21.0017L13.6666 21.0007L13.6668 20.9996C13.6691 20.9853 13.6818 20.9044 13.7533 20.7455C13.832 20.5706 13.9595 20.3503 14.142 20.0966C14.5066 19.59 15.052 19.0042 15.7412 18.4488C17.1287 17.3306 18.9943 16.4173 20.9997 16.4173C23.0051 16.4173 24.8707 17.3306 26.2581 18.4488C26.9474 19.0042 27.4927 19.59 27.8573 20.0966C28.0399 20.3503 28.1674 20.5706 28.246 20.7455C28.3175 20.9044 28.3303 20.9853 28.3325 20.9996L28.3327 21.0007L28.3325 21.0017C28.3303 21.016 28.3175 21.0969 28.246 21.2558C28.1674 21.4307 28.0399 21.651 27.8573 21.9047C27.4927 22.4113 26.9474 22.9971 26.2581 23.5526C24.8707 24.6706 23.0051 25.584 20.9997 25.584C18.9943 25.584 17.1287 24.6706 15.7412 23.5526C15.052 22.9971 14.5066 22.4113 14.142 21.9047C13.9595 21.651 13.832 21.4307 13.7533 21.2558C13.6818 21.0969 13.6691 21.016 13.6668 21.0017ZM20.9997 14.584C18.4487 14.584 16.1893 15.7332 14.5909 17.0213C13.7871 17.669 13.1243 18.3722 12.654 19.0257C12.419 19.3522 12.2224 19.6797 12.0813 19.9936C11.9462 20.2939 11.833 20.6449 11.833 21.0007C11.833 21.3564 11.9462 21.7074 12.0813 22.0077C12.2224 22.3216 12.419 22.6491 12.654 22.9755C13.1243 23.6291 13.7871 24.3324 14.5909 24.98C16.1893 26.2682 18.4487 27.4173 20.9997 27.4173C23.5506 27.4173 25.8101 26.2682 27.4085 24.98C28.2122 24.3324 28.875 23.6291 29.3454 22.9755C29.5803 22.6491 29.7769 22.3216 29.9181 22.0077C30.0531 21.7074 30.1663 21.3564 30.1663 21.0007C30.1663 20.6449 30.0531 20.2939 29.9181 19.9936C29.7769 19.6797 29.5803 19.3522 29.3454 19.0257C28.875 18.3722 28.2122 17.669 27.4085 17.0213C25.8101 15.7332 23.5506 14.584 20.9997 14.584ZM20.083 21.0007C20.083 20.4944 20.4934 20.084 20.9997 20.084C21.5059 20.084 21.9163 20.4944 21.9163 21.0007C21.9163 21.5069 21.5059 21.9173 20.9997 21.9173C20.4934 21.9173 20.083 21.5069 20.083 21.0007ZM20.9997 18.2507C19.4808 18.2507 18.2497 19.4818 18.2497 21.0007C18.2497 22.5195 19.4808 23.7507 20.9997 23.7507C22.5185 23.7507 23.7497 22.5195 23.7497 21.0007C23.7497 19.4818 22.5185 18.2507 20.9997 18.2507Z" fill="black" fill-opacity="0.7"/>
</g>
<defs>
<clipPath id="clip0_1025_3661">
<rect width="22" height="22" fill="white" transform="translate(10 10)"/>
</clipPath>
</defs>
</svg>
