<svg width="26" height="22" viewBox="0 0 26 22" fill="none" xmlns="http://www.w3.org/2000/svg">
<path d="M23.5187 1.30005C24.2312 1.30005 24.7687 1.92505 24.4812 3.08755L20.9937 19.5251C20.75 20.6938 20.0437 20.9751 19.0687 20.4313L10.75 14.2876C10.7177 14.2644 10.6915 14.2339 10.6733 14.1986C10.6552 14.1633 10.6457 14.1241 10.6457 14.0844C10.6457 14.0447 10.6552 14.0056 10.6733 13.9703C10.6915 13.9349 10.7177 13.9044 10.75 13.8813L20.3562 5.2063C20.7937 4.8188 20.2625 4.6313 19.6875 4.9813L7.63125 12.5876C7.59468 12.6114 7.55317 12.6266 7.50985 12.632C7.46653 12.6374 7.42255 12.6329 7.38125 12.6188L2.26249 11.0001C1.12499 10.6688 1.12499 9.88755 2.51874 9.3313L23 1.4313C23.1624 1.35337 23.3388 1.30875 23.5187 1.30005Z" stroke="#5D169C" stroke-width="2.496" stroke-linecap="round" stroke-linejoin="round"/>
</svg>
