<svg width="42" height="42" viewBox="0 0 42 42" fill="none" xmlns="http://www.w3.org/2000/svg">
<rect width="42" height="42" rx="21" fill="#F2F2F2"/>
<g clip-path="url(#clip0_1120_3683)">
<path d="M12.7951 18.5355C12.7658 18.4459 12.75 18.3501 12.75 18.2507C12.75 17.7444 13.1604 17.334 13.6667 17.334C14.0881 17.334 14.443 17.6183 14.5502 18.0056C16.4622 24.4094 25.5335 24.4108 27.4486 18.0099C27.5543 17.6204 27.9104 17.334 28.3333 17.334C28.8396 17.334 29.25 17.7444 29.25 18.2507C29.25 18.3486 29.2347 18.4429 29.2062 18.5313C28.8389 19.7615 28.2638 20.806 27.5438 21.6647L28.7131 22.834C29.0711 23.1919 29.0711 23.7724 28.7131 24.1303C28.3552 24.4883 27.7747 24.4883 27.4168 24.1303L26.2146 22.9282C25.56 23.423 24.8419 23.8107 24.0879 24.0913L24.4159 25.3155C24.547 25.8045 24.2567 26.3071 23.7677 26.4381C23.2787 26.5692 22.776 26.279 22.6451 25.79L22.3118 24.5465C21.4433 24.675 20.5567 24.675 19.6882 24.5465L19.355 25.79C19.224 26.279 18.7213 26.5692 18.2323 26.4381C17.7433 26.3071 17.4531 25.8045 17.5841 25.3155L17.9122 24.0913C17.1582 23.8107 16.4401 23.423 15.7855 22.9283L14.5835 24.1303C14.2255 24.4883 13.6451 24.4883 13.2871 24.1303C12.9291 23.7724 12.9291 23.1919 13.2871 22.834L14.4563 21.6648C13.7371 20.807 13.1626 19.7639 12.7951 18.5355Z" fill="black" fill-opacity="0.7"/>
</g>
<defs>
<clipPath id="clip0_1120_3683">
<rect width="22" height="22" fill="white" transform="translate(10 10)"/>
</clipPath>
</defs>
</svg>
