<svg width="45" height="45" viewBox="0 0 45 45" fill="none" xmlns="http://www.w3.org/2000/svg">
<g filter="url(#filter0_d_797_4093)">
<rect x="8" y="4" width="29" height="29" rx="14.5" fill="white" shape-rendering="crispEdges"/>
<g clip-path="url(#clip0_797_4093)">
<path fill-rule="evenodd" clip-rule="evenodd" d="M28.0298 12.1742C27.2976 11.4419 26.1104 11.4419 25.3781 12.1742L16.5297 21.0227C16.2679 21.2844 16.0895 21.6178 16.0169 21.9808L15.65 23.8154C15.475 24.69 16.2462 25.4612 17.1208 25.2863L18.9554 24.9193C19.3184 24.8468 19.6518 24.6683 19.9135 24.4066L28.762 15.5581C29.4942 14.8258 29.4942 13.6386 28.762 12.9064L28.0298 12.1742ZM26.262 13.0581C26.5061 12.814 26.9018 12.814 27.1459 13.0581L27.8781 13.7903C28.1222 14.0344 28.1222 14.4301 27.8781 14.6742L26.2084 16.3439L24.5923 14.7278L26.262 13.0581ZM23.7084 15.6117L17.4135 21.9066C17.3263 21.9938 17.2668 22.1049 17.2426 22.2259L16.8757 24.0605L18.7103 23.6936C18.8313 23.6694 18.9424 23.6099 19.0296 23.5227L25.3245 17.2278L23.7084 15.6117Z" fill="black" fill-opacity="0.7"/>
</g>
</g>
<defs>
<filter id="filter0_d_797_4093" x="0" y="0" width="45" height="45" filterUnits="userSpaceOnUse" color-interpolation-filters="sRGB">
<feFlood flood-opacity="0" result="BackgroundImageFix"/>
<feColorMatrix in="SourceAlpha" type="matrix" values="0 0 0 0 0 0 0 0 0 0 0 0 0 0 0 0 0 0 127 0" result="hardAlpha"/>
<feOffset dy="4"/>
<feGaussianBlur stdDeviation="4"/>
<feComposite in2="hardAlpha" operator="out"/>
<feColorMatrix type="matrix" values="0 0 0 0 0 0 0 0 0 0 0 0 0 0 0 0 0 0 0.1 0"/>
<feBlend mode="normal" in2="BackgroundImageFix" result="effect1_dropShadow_797_4093"/>
<feBlend mode="normal" in="SourceGraphic" in2="effect1_dropShadow_797_4093" result="shape"/>
</filter>
<clipPath id="clip0_797_4093">
<rect width="15" height="15" fill="white" transform="translate(15 11)"/>
</clipPath>
</defs>
</svg>
