<svg width="9" height="14" viewBox="0 0 9 14" fill="none" xmlns="http://www.w3.org/2000/svg">
<path d="M8.45955 6.55705L0.535352 0.367789C0.514646 0.351487 0.489762 0.341356 0.463557 0.33856C0.437353 0.335763 0.410891 0.340414 0.387211 0.351979C0.363531 0.363544 0.343593 0.381553 0.329687 0.403939C0.315781 0.426324 0.30847 0.452178 0.308595 0.478531V1.83732C0.308595 1.92345 0.349025 2.00607 0.415822 2.0588L6.74393 7.00002L0.415822 11.9412C0.347267 11.994 0.308595 12.0766 0.308595 12.1627V13.5215C0.308595 13.6393 0.443946 13.7043 0.535352 13.6322L8.45955 7.44298C8.5269 7.39045 8.58139 7.32324 8.61886 7.24649C8.65633 7.16973 8.67581 7.08543 8.67581 7.00002C8.67581 6.9146 8.65633 6.8303 8.61886 6.75354C8.58139 6.67679 8.5269 6.60958 8.45955 6.55705Z" fill="black" fill-opacity="0.88"/>
</svg>
