<svg width="9" height="14" viewBox="0 0 9 14" fill="none" xmlns="http://www.w3.org/2000/svg">
<path d="M8.72708 1.83692V0.478129C8.72708 0.360355 8.59172 0.295316 8.50032 0.367386L0.576099 6.55664C0.508772 6.609 0.454293 6.67605 0.416819 6.75266C0.379344 6.82928 0.359863 6.91344 0.359863 6.99873C0.359863 7.08402 0.379344 7.16819 0.416819 7.2448C0.454293 7.32142 0.508772 7.38846 0.576099 7.44082L8.50032 13.6301C8.59348 13.7022 8.72708 13.6371 8.72708 13.5193V12.1605C8.72708 12.0744 8.68665 11.9918 8.61985 11.9391L2.29172 6.99961L8.61985 2.0584C8.68665 2.00567 8.72708 1.92305 8.72708 1.83692V1.83692Z" fill="black" fill-opacity="0.88"/>
</svg>
