<svg width="20" height="20" viewBox="0 0 20 20" fill="none" xmlns="http://www.w3.org/2000/svg">
<path fill-rule="evenodd" clip-rule="evenodd" d="M4.41107 4.41009C4.73651 4.08466 5.26414 4.08466 5.58958 4.41009L10.0003 8.82085L14.4111 4.41009C14.7365 4.08466 15.2642 4.08466 15.5896 4.41009C15.915 4.73553 15.915 5.26317 15.5896 5.58861L11.1788 9.99935L15.5896 14.4101C15.915 14.7355 15.915 15.2632 15.5896 15.5886C15.2642 15.914 14.7365 15.914 14.4111 15.5886L10.0003 11.1778L5.58958 15.5886C5.26414 15.914 4.73651 15.914 4.41107 15.5886C4.08563 15.2632 4.08563 14.7355 4.41107 14.4101L8.82183 9.99935L4.41107 5.58861C4.08563 5.26317 4.08563 4.73553 4.41107 4.41009Z" fill="black" fill-opacity="0.7"/>
</svg>
