<svg width="24" height="24" viewBox="0 0 24 24" fill="none" xmlns="http://www.w3.org/2000/svg">
<path d="M11.9989 5.99208C8.67372 5.99208 5.99013 8.67568 5.99013 12.0009C5.99013 15.3261 8.67372 18.0097 11.9989 18.0097C15.3241 18.0097 18.0077 15.3261 18.0077 12.0009C18.0077 8.67568 15.3241 5.99208 11.9989 5.99208ZM11.9989 15.9061C9.84853 15.9061 8.09365 14.1513 8.09365 12.0009C8.09365 9.85048 9.84853 8.0956 11.9989 8.0956C14.1493 8.0956 15.9042 9.85048 15.9042 12.0009C15.9042 14.1513 14.1493 15.9061 11.9989 15.9061ZM18.2538 4.3456C17.4774 4.3456 16.8505 4.97255 16.8505 5.74892C16.8505 6.52529 17.4774 7.15224 18.2538 7.15224C19.0302 7.15224 19.6571 6.52821 19.6571 5.74892C19.6574 5.56457 19.6212 5.38198 19.5508 5.21162C19.4803 5.04125 19.377 4.88646 19.2466 4.7561C19.1163 4.62575 18.9615 4.52239 18.7911 4.45195C18.6207 4.38151 18.4382 4.34537 18.2538 4.3456V4.3456ZM23.7118 12.0009C23.7118 10.3837 23.7265 8.78114 23.6356 7.16689C23.5448 5.29189 23.1171 3.62782 21.746 2.25673C20.372 0.882707 18.7108 0.457903 16.8358 0.367082C15.2186 0.276262 13.6161 0.29091 12.0018 0.29091C10.3847 0.29091 8.78212 0.276262 7.16786 0.367082C5.29286 0.457903 3.6288 0.885637 2.25771 2.25673C0.883684 3.63075 0.458879 5.29189 0.368059 7.16689C0.277239 8.78407 0.291887 10.3866 0.291887 12.0009C0.291887 13.6151 0.277239 15.2206 0.368059 16.8349C0.458879 18.7099 0.886614 20.3739 2.25771 21.745C3.63173 23.119 5.29286 23.5438 7.16786 23.6347C8.78505 23.7255 10.3876 23.7108 12.0018 23.7108C13.619 23.7108 15.2216 23.7255 16.8358 23.6347C18.7108 23.5438 20.3749 23.1161 21.746 21.745C23.12 20.371 23.5448 18.7099 23.6356 16.8349C23.7294 15.2206 23.7118 13.6181 23.7118 12.0009V12.0009ZM21.1337 18.9091C20.9198 19.4423 20.662 19.8407 20.2489 20.2509C19.8358 20.664 19.4403 20.9218 18.9071 21.1356C17.3661 21.7479 13.7069 21.6102 11.9989 21.6102C10.2909 21.6102 6.6288 21.7479 5.08779 21.1386C4.55458 20.9247 4.15615 20.6669 3.74599 20.2538C3.3329 19.8407 3.07509 19.4452 2.86122 18.912C2.25185 17.3681 2.38954 13.7089 2.38954 12.0009C2.38954 10.2929 2.25185 6.63075 2.86122 5.08974C3.07509 4.55654 3.3329 4.1581 3.74599 3.74794C4.15907 3.33779 4.55458 3.07704 5.08779 2.86318C6.6288 2.2538 10.2909 2.3915 11.9989 2.3915C13.7069 2.3915 17.369 2.2538 18.9101 2.86318C19.4433 3.07704 19.8417 3.33486 20.2519 3.74794C20.6649 4.16103 20.9227 4.55654 21.1366 5.08974C21.746 6.63075 21.6083 10.2929 21.6083 12.0009C21.6083 13.7089 21.746 17.3681 21.1337 18.9091Z" fill="#5D169C"/>
</svg>
