<svg width="12" height="14" viewBox="0 0 12 14" fill="none" xmlns="http://www.w3.org/2000/svg">
<path d="M6.04988 -0.00488281C3.18031 -0.00488281 0.75 2.43943 0.75 5.33437C0.75 8.36624 3.56706 11.4668 5.46187 13.646C5.46931 13.6547 5.77556 13.9947 6.15269 13.9947H6.18594C6.5635 13.9947 6.86756 13.6547 6.875 13.646C8.653 11.602 11.25 8.23106 11.25 5.33437C11.25 2.43899 9.35431 -0.00488281 6.04988 -0.00488281ZM6.22531 13.0589C6.21 13.0742 6.18769 13.0912 6.168 13.1057C6.14788 13.0917 6.126 13.0742 6.10981 13.0589L5.881 12.7955C4.08462 10.7349 1.62456 7.91256 1.62456 5.33393C1.62456 2.91368 3.65106 0.869242 6.04944 0.869242C9.03713 0.869242 10.3746 3.11143 10.3746 5.33393C10.3746 7.29131 8.9785 9.89093 6.22531 13.0589ZM6.01531 2.64418C4.56588 2.64418 3.39031 3.8193 3.39031 5.26918C3.39031 6.71906 4.56588 7.89418 6.01531 7.89418C7.46475 7.89418 8.64031 6.71862 8.64031 5.26918C8.64031 3.81974 7.46519 2.64418 6.01531 2.64418ZM6.01531 7.01918C5.05019 7.01918 4.24519 6.21506 4.24519 5.24993C4.24519 4.28481 5.03006 3.49993 5.99519 3.49993C6.96075 3.49993 7.74519 4.28481 7.74519 5.24993C7.74563 6.21506 6.98088 7.01918 6.01531 7.01918Z" fill="black" fill-opacity="0.68"/>
</svg>
