<svg width="30" height="31" viewBox="0 0 30 31" fill="none" xmlns="http://www.w3.org/2000/svg">
<path d="M25.5192 5.80078C26.2317 5.80078 26.7692 6.42578 26.4817 7.58828L22.9942 24.0258C22.7505 25.1945 22.0442 25.4758 21.0692 24.932L12.7505 18.7883C12.7182 18.7651 12.6919 18.7346 12.6738 18.6993C12.6557 18.664 12.6462 18.6249 12.6462 18.5852C12.6462 18.5455 12.6557 18.5063 12.6738 18.471C12.6919 18.4357 12.7182 18.4052 12.7505 18.382L22.3567 9.70703C22.7942 9.31953 22.263 9.13203 21.688 9.48203L9.63173 17.0883C9.59517 17.1121 9.55366 17.1273 9.51034 17.1328C9.46702 17.1382 9.42304 17.1336 9.38173 17.1195L4.26298 15.5008C3.12548 15.1695 3.12548 14.3883 4.51923 13.832L25.0005 5.93203C25.1629 5.85411 25.3393 5.80948 25.5192 5.80078Z" stroke="#5D169C" stroke-width="2" stroke-linecap="round" stroke-linejoin="round"/>
</svg>
