<svg width="103" height="103" viewBox="0 0 103 103" fill="none" xmlns="http://www.w3.org/2000/svg">
<path d="M70.3057 35.5067H65.5882C64.5623 35.5067 63.5866 35.9996 62.9831 36.8445L47.1709 58.7722L40.0091 48.8343C39.4056 47.9995 38.44 47.4966 37.404 47.4966H32.6865C32.0327 47.4966 31.6504 48.2409 32.0327 48.774L44.5657 66.1553C44.8618 66.5685 45.2521 66.9052 45.7043 67.1375C46.1565 67.3698 46.6575 67.491 47.1659 67.491C47.6742 67.491 48.1753 67.3698 48.6274 67.1375C49.0796 66.9052 49.4699 66.5685 49.766 66.1553L70.9495 36.7842C71.3418 36.251 70.9595 35.5067 70.3057 35.5067Z" fill="#7318C4" fill-opacity="0.1"/>
<path d="M51.5 6.43738C26.615 6.43738 6.4375 26.6149 6.4375 51.4999C6.4375 76.3848 26.615 96.5624 51.5 96.5624C76.385 96.5624 96.5625 76.3848 96.5625 51.4999C96.5625 26.6149 76.385 6.43738 51.5 6.43738ZM51.5 88.9178C30.8396 88.9178 14.082 72.1602 14.082 51.4999C14.082 30.8395 30.8396 14.0819 51.5 14.0819C72.1603 14.0819 88.918 30.8395 88.918 51.4999C88.918 72.1602 72.1603 88.9178 51.5 88.9178Z" fill="#7318C4" fill-opacity="0.1"/>
</svg>
