<svg width="103" height="103" viewBox="0 0 103 103" fill="none" xmlns="http://www.w3.org/2000/svg">
<path d="M51.5 6.4375C26.615 6.4375 6.4375 26.615 6.4375 51.5C6.4375 76.385 26.615 96.5625 51.5 96.5625C76.385 96.5625 96.5625 76.385 96.5625 51.5C96.5625 26.615 76.385 6.4375 51.5 6.4375ZM51.5 88.918C30.8396 88.918 14.082 72.1604 14.082 51.5C14.082 30.8396 30.8396 14.082 51.5 14.082C72.1604 14.082 88.918 30.8396 88.918 51.5C88.918 72.1604 72.1604 88.918 51.5 88.918ZM56.298 49.1664L53.7431 48.5729V35.0643C57.5653 35.5873 59.9291 37.9812 60.3314 40.9184C60.3817 41.3207 60.7237 41.6124 61.1261 41.6124H65.6424C66.1151 41.6124 66.4873 41.2 66.4471 40.7272C65.8335 34.4607 60.6734 30.4373 53.7833 29.7433V26.4541C53.7833 26.0115 53.4212 25.6494 52.9786 25.6494H50.1521C49.7096 25.6494 49.3475 26.0115 49.3475 26.4541V29.7734C42.226 30.4675 36.6535 34.4004 36.6535 41.7432C36.6535 48.5428 41.6627 51.8219 46.9233 53.0792L49.4078 53.7129V68.0665C44.9619 67.473 42.4674 65.0992 41.9544 61.9006C41.894 61.5184 41.5521 61.2367 41.1598 61.2367H36.5127C36.0399 61.2367 35.6678 61.6391 35.708 62.1118C36.1606 67.644 40.3551 72.7337 49.3072 73.3875V76.5459C49.3072 76.9885 49.6693 77.3506 50.1119 77.3506H52.9686C53.4111 77.3506 53.7732 76.9885 53.7732 76.5358L53.7531 73.3473C61.629 72.6532 67.2618 68.4387 67.2618 60.8746C67.2518 53.8939 62.8159 50.7758 56.298 49.1664V49.1664ZM49.3978 47.5369C48.8345 47.376 48.3617 47.2251 47.889 47.034C44.4892 45.8068 42.91 43.8253 42.91 41.2704C42.91 37.6191 45.6761 35.537 49.3978 35.0643V47.5369ZM53.7431 68.0967V54.6483C54.0549 54.7389 54.3365 54.8093 54.6282 54.8696C59.3859 56.3181 60.9853 58.3298 60.9853 61.4178C60.9853 65.3507 58.028 67.7145 53.7431 68.0967Z" fill="#7318C4" fill-opacity="0.1"/>
</svg>
