<svg width="40" height="40" viewBox="0 0 40 40" fill="none" xmlns="http://www.w3.org/2000/svg">
<path d="M34.6055 20.849C35.2617 19.9818 35.625 18.9193 35.625 17.8139C35.625 16.06 34.6445 14.3998 33.0664 13.474C32.6601 13.2357 32.1976 13.1103 31.7266 13.1107H22.3594L22.5938 8.30997C22.6484 7.14981 22.2383 6.04825 21.4414 5.2084C21.0503 4.79445 20.5785 4.46509 20.0551 4.24069C19.5318 4.01628 18.9679 3.9016 18.3984 3.90372C16.3672 3.90372 14.5703 5.2709 14.0313 7.22793L10.6758 19.3764H5.625C4.93359 19.3764 4.375 19.935 4.375 20.6264V34.8451C4.375 35.5365 4.93359 36.0951 5.625 36.0951H29.1133C29.4727 36.0951 29.8242 36.0248 30.1484 35.8842C32.0078 35.0912 33.207 33.2748 33.207 31.2592C33.207 30.767 33.1367 30.2826 32.9961 29.8139C33.6523 28.9467 34.0156 27.8842 34.0156 26.7787C34.0156 26.2865 33.9453 25.8022 33.8047 25.3334C34.4609 24.4662 34.8242 23.4037 34.8242 22.2982C34.8164 21.8061 34.7461 21.3178 34.6055 20.849V20.849ZM7.1875 33.2826V22.1889H10.3516V33.2826H7.1875ZM32.0469 19.4936L31.1914 20.2357L31.7344 21.2279C31.9133 21.5548 32.006 21.9218 32.0039 22.2943C32.0039 22.9389 31.7227 23.5522 31.2383 23.974L30.3828 24.7162L30.9258 25.7084C31.1047 26.0352 31.1974 26.4022 31.1953 26.7748C31.1953 27.4193 30.9141 28.0326 30.4297 28.4545L29.5742 29.1967L30.1172 30.1889C30.2961 30.5157 30.3888 30.8827 30.3867 31.2553C30.3867 32.1303 29.8711 32.9193 29.0742 33.2787H12.8516V22.0639L16.7383 7.98184C16.8385 7.6209 17.0536 7.30247 17.3511 7.0748C17.6486 6.84712 18.0121 6.7226 18.3867 6.72012C18.6836 6.72012 18.9766 6.80606 19.2109 6.98184C19.5977 7.2709 19.8047 7.7084 19.7812 8.17325L19.4062 15.9232H31.6875C32.3828 16.349 32.8125 17.0678 32.8125 17.8139C32.8125 18.4584 32.5313 19.0678 32.0469 19.4936Z" fill="#7318C4"/>
</svg>
