<svg width="30" height="36" viewBox="0 0 30 36" fill="none" xmlns="http://www.w3.org/2000/svg">
<path d="M15 0.5L0 5.5V20.5C0 28.7852 6.71484 35.5 15 35.5C23.2852 35.5 30 28.7852 30 20.5V5.5L15 0.5ZM27.1875 20.5C27.1875 27.2305 21.7305 32.6875 15 32.6875C8.26953 32.6875 2.8125 27.2305 2.8125 20.5V7.60938L15 3.3125L27.1875 7.60938V20.5Z" fill="#7318C4"/>
<path d="M9.782 16.5585C9.65166 16.4276 9.49674 16.3237 9.32614 16.2528C9.15553 16.1819 8.97261 16.1454 8.78786 16.1454C8.60311 16.1454 8.42018 16.1819 8.24958 16.2528C8.07897 16.3237 7.92405 16.4276 7.79372 16.5585C7.66278 16.6889 7.55888 16.8438 7.48799 17.0144C7.41709 17.185 7.3806 17.3679 7.3806 17.5527C7.3806 17.7374 7.41709 17.9203 7.48799 18.0909C7.55888 18.2615 7.66278 18.4165 7.79372 18.5468L12.9304 23.6835C13.0537 23.807 13.2002 23.905 13.3614 23.9719C13.5226 24.0387 13.6954 24.0731 13.8699 24.0731C14.0444 24.0731 14.2172 24.0387 14.3784 23.9719C14.5396 23.905 14.6861 23.807 14.8094 23.6835L23.5399 14.9531C23.6634 14.8298 23.7614 14.6833 23.8282 14.5221C23.8951 14.3609 23.9295 14.1881 23.9295 14.0136C23.9295 13.8391 23.8951 13.6663 23.8282 13.5051C23.7614 13.3439 23.6634 13.1975 23.5399 13.0742L23.4305 12.9648C23.3072 12.8413 23.1608 12.7433 22.9996 12.6764C22.8383 12.6096 22.6655 12.5751 22.491 12.5751C22.3165 12.5751 22.1437 12.6096 21.9825 12.6764C21.8213 12.7433 21.6749 12.8413 21.5516 12.9648L13.868 20.6444L9.782 16.5585Z" fill="#7318C4"/>
</svg>
