<svg width="40" height="40" viewBox="0 0 40 40" fill="none" xmlns="http://www.w3.org/2000/svg">
<path d="M33.5343 29.8281C32.7974 28.0827 31.7281 26.4973 30.3858 25.1602C29.0477 23.8192 27.4625 22.75 25.7179 22.0117C25.7022 22.0039 25.6866 22 25.671 21.9922C28.1046 20.2344 29.6866 17.3711 29.6866 14.1406C29.6866 8.78906 25.3507 4.45312 19.9991 4.45312C14.6476 4.45312 10.3116 8.78906 10.3116 14.1406C10.3116 17.3711 11.8937 20.2344 14.3272 21.9961C14.3116 22.0039 14.296 22.0078 14.2804 22.0156C12.5304 22.7539 10.9601 23.8125 9.6124 25.1641C8.27142 26.5022 7.20226 28.0874 6.46396 29.832C5.73866 31.5401 5.34749 33.3713 5.31162 35.2266C5.31058 35.2683 5.31789 35.3097 5.33313 35.3486C5.34837 35.3874 5.37122 35.4228 5.40034 35.4526C5.42946 35.4825 5.46427 35.5062 5.5027 35.5224C5.54113 35.5386 5.58242 35.5469 5.62412 35.5469H7.96787C8.13975 35.5469 8.27647 35.4102 8.28037 35.2422C8.3585 32.2266 9.56943 29.4023 11.7101 27.2617C13.9249 25.0469 16.8663 23.8281 19.9991 23.8281C23.1319 23.8281 26.0733 25.0469 28.2882 27.2617C30.4288 29.4023 31.6397 32.2266 31.7179 35.2422C31.7218 35.4141 31.8585 35.5469 32.0304 35.5469H34.3741C34.4158 35.5469 34.4571 35.5386 34.4955 35.5224C34.534 35.5062 34.5688 35.4825 34.5979 35.4526C34.627 35.4228 34.6499 35.3874 34.6651 35.3486C34.6804 35.3097 34.6877 35.2683 34.6866 35.2266C34.6476 33.3594 34.2608 31.543 33.5343 29.8281V29.8281ZM19.9991 20.8594C18.2062 20.8594 16.5187 20.1602 15.2491 18.8906C13.9796 17.6211 13.2804 15.9336 13.2804 14.1406C13.2804 12.3477 13.9796 10.6602 15.2491 9.39062C16.5187 8.12109 18.2062 7.42188 19.9991 7.42188C21.7921 7.42188 23.4796 8.12109 24.7491 9.39062C26.0187 10.6602 26.7179 12.3477 26.7179 14.1406C26.7179 15.9336 26.0187 17.6211 24.7491 18.8906C23.4796 20.1602 21.7921 20.8594 19.9991 20.8594Z" fill="#7318C4"/>
</svg>
