<svg width="103" height="103" viewBox="0 0 103 103" fill="none" xmlns="http://www.w3.org/2000/svg">
<path d="M85.9607 29.0291L64.3147 7.38301C63.7111 6.77949 62.8964 6.4375 62.0414 6.4375H19.3125C17.5321 6.4375 16.0938 7.87588 16.0938 9.65625V93.3438C16.0938 95.1241 17.5321 96.5625 19.3125 96.5625H83.6875C85.4679 96.5625 86.9062 95.1241 86.9062 93.3438V31.3124C86.9062 30.4574 86.5643 29.6326 85.9607 29.0291ZM79.483 32.791H60.5527V13.8607L79.483 32.791ZM79.6641 89.3203H23.3359V13.6797H53.7129V35.4062C53.7129 36.5267 54.158 37.6012 54.9502 38.3935C55.7425 39.1858 56.8171 39.6309 57.9375 39.6309H79.6641V89.3203ZM50.6953 62.1621H32.1875C31.7449 62.1621 31.3828 62.5242 31.3828 62.9668V67.7949C31.3828 68.2375 31.7449 68.5996 32.1875 68.5996H50.6953C51.1379 68.5996 51.5 68.2375 51.5 67.7949V62.9668C51.5 62.5242 51.1379 62.1621 50.6953 62.1621ZM31.3828 49.2871V54.1152C31.3828 54.5578 31.7449 54.9199 32.1875 54.9199H70.8125C71.2551 54.9199 71.6172 54.5578 71.6172 54.1152V49.2871C71.6172 48.8445 71.2551 48.4824 70.8125 48.4824H32.1875C31.7449 48.4824 31.3828 48.8445 31.3828 49.2871Z" fill="#7318C4" fill-opacity="0.1"/>
</svg>
