<svg width="103" height="103" viewBox="0 0 103 103" fill="none" xmlns="http://www.w3.org/2000/svg">
<path d="M90.9297 51.5H85.2969C84.8543 51.5 84.4922 51.8621 84.4922 52.3047V84.4922H18.5078V18.5078H50.6953C51.1379 18.5078 51.5 18.1457 51.5 17.7031V12.0703C51.5 11.6277 51.1379 11.2656 50.6953 11.2656H14.4844C12.704 11.2656 11.2656 12.704 11.2656 14.4844V88.5156C11.2656 90.296 12.704 91.7344 14.4844 91.7344H88.5156C90.296 91.7344 91.7344 90.296 91.7344 88.5156V52.3047C91.7344 51.8621 91.3723 51.5 90.9297 51.5Z" fill="#7318C4" fill-opacity="0.1"/>
<path d="M35.8024 53.8034L35.6113 65.7631C35.6012 66.6583 36.3254 67.3926 37.2206 67.3926H37.2609L49.13 67.1009C49.3312 67.0908 49.5324 67.0103 49.6732 66.8695L91.5069 25.1264C91.8187 24.8146 91.8187 24.3016 91.5069 23.9897L79.004 11.497C78.8431 11.336 78.6419 11.2656 78.4307 11.2656C78.2195 11.2656 78.0183 11.3461 77.8574 11.497L36.0337 53.2401C35.8884 53.3921 35.8058 53.5932 35.8024 53.8034ZM42.1896 56.1772L78.4307 20.0166L82.9772 24.553L46.7159 60.7338L42.1192 60.8444L42.1896 56.1772Z" fill="#7318C4" fill-opacity="0.1"/>
</svg>
